<mxfile host="app.diagrams.net" agent="Mozilla/5.0 (Windows NT 10.0; Win64; x64) AppleWebKit/537.36 (KHTML, like Gecko) Chrome/126.0.0.0 Safari/537.36" version="26.2.9">
  <diagram id="C5RBs43oDa-KdzZeNtuy" name="Page-1">
    <mxGraphModel dx="1896" dy="453" grid="1" gridSize="10" guides="1" tooltips="1" connect="1" arrows="1" fold="1" page="1" pageScale="1" pageWidth="827" pageHeight="1169" math="0" shadow="0">
      <root>
        <mxCell id="WIyWlLk6GJQsqaUBKTNV-0" />
        <mxCell id="WIyWlLk6GJQsqaUBKTNV-1" parent="WIyWlLk6GJQsqaUBKTNV-0" />
        <mxCell id="mdKV01XAuSbf0GLCG51V-19" value="" style="rounded=1;whiteSpace=wrap;html=1;fillColor=none;dashed=1;" vertex="1" parent="WIyWlLk6GJQsqaUBKTNV-1">
          <mxGeometry x="-210" y="150" width="250" height="350" as="geometry" />
        </mxCell>
        <mxCell id="mdKV01XAuSbf0GLCG51V-13" value="" style="rounded=1;whiteSpace=wrap;html=1;fillColor=none;dashed=1;" vertex="1" parent="WIyWlLk6GJQsqaUBKTNV-1">
          <mxGeometry x="60" y="150" width="420" height="350" as="geometry" />
        </mxCell>
        <mxCell id="mdKV01XAuSbf0GLCG51V-17" value="" style="rounded=1;whiteSpace=wrap;html=1;fillColor=none;dashed=1;" vertex="1" parent="WIyWlLk6GJQsqaUBKTNV-1">
          <mxGeometry x="780" y="150" width="250" height="350" as="geometry" />
        </mxCell>
        <mxCell id="mdKV01XAuSbf0GLCG51V-15" value="" style="rounded=1;whiteSpace=wrap;html=1;fillColor=none;dashed=1;" vertex="1" parent="WIyWlLk6GJQsqaUBKTNV-1">
          <mxGeometry x="500" y="150" width="250" height="350" as="geometry" />
        </mxCell>
        <mxCell id="mdKV01XAuSbf0GLCG51V-0" value="出数kafka&lt;div&gt;10.19.85.9～15:9092&lt;br&gt;&lt;/div&gt;" style="rounded=1;whiteSpace=wrap;html=1;" vertex="1" parent="WIyWlLk6GJQsqaUBKTNV-1">
          <mxGeometry x="310" y="310" width="120" height="60" as="geometry" />
        </mxCell>
        <mxCell id="mdKV01XAuSbf0GLCG51V-1" value="入库kafka" style="rounded=1;whiteSpace=wrap;html=1;" vertex="1" parent="WIyWlLk6GJQsqaUBKTNV-1">
          <mxGeometry x="90" y="310" width="120" height="60" as="geometry" />
        </mxCell>
        <mxCell id="mdKV01XAuSbf0GLCG51V-2" value="" style="endArrow=classic;html=1;rounded=0;exitX=1;exitY=0.5;exitDx=0;exitDy=0;entryX=0;entryY=0.5;entryDx=0;entryDy=0;fillColor=#008a00;strokeColor=light-dark(#050505, #82cd82);" edge="1" parent="WIyWlLk6GJQsqaUBKTNV-1" source="mdKV01XAuSbf0GLCG51V-1" target="mdKV01XAuSbf0GLCG51V-0">
          <mxGeometry width="50" height="50" relative="1" as="geometry">
            <mxPoint x="230" y="250" as="sourcePoint" />
            <mxPoint x="280" y="200" as="targetPoint" />
          </mxGeometry>
        </mxCell>
        <mxCell id="mdKV01XAuSbf0GLCG51V-6" value="推送" style="edgeLabel;html=1;align=center;verticalAlign=middle;resizable=0;points=[];" vertex="1" connectable="0" parent="mdKV01XAuSbf0GLCG51V-2">
          <mxGeometry relative="1" as="geometry">
            <mxPoint as="offset" />
          </mxGeometry>
        </mxCell>
        <mxCell id="mdKV01XAuSbf0GLCG51V-3" value="517推荐平台&lt;div&gt;&lt;div&gt;测试环境：10.19.94.143&lt;/div&gt;&lt;div&gt;生产环境：10.19.87.1&lt;/div&gt;&lt;/div&gt;" style="rounded=1;whiteSpace=wrap;html=1;dashed=1;dashPattern=8 8;" vertex="1" parent="WIyWlLk6GJQsqaUBKTNV-1">
          <mxGeometry x="530" y="310" width="170" height="60" as="geometry" />
        </mxCell>
        <mxCell id="mdKV01XAuSbf0GLCG51V-4" value="" style="endArrow=classic;html=1;rounded=0;exitX=0;exitY=0.5;exitDx=0;exitDy=0;fillColor=#008a00;strokeColor=light-dark(#050505, #82cd82);entryX=1;entryY=0.5;entryDx=0;entryDy=0;dashed=1;dashPattern=8 8;" edge="1" parent="WIyWlLk6GJQsqaUBKTNV-1" source="mdKV01XAuSbf0GLCG51V-3" target="mdKV01XAuSbf0GLCG51V-0">
          <mxGeometry width="50" height="50" relative="1" as="geometry">
            <mxPoint x="220" y="350" as="sourcePoint" />
            <mxPoint x="490" y="210" as="targetPoint" />
          </mxGeometry>
        </mxCell>
        <mxCell id="mdKV01XAuSbf0GLCG51V-7" value="读取" style="edgeLabel;html=1;align=center;verticalAlign=middle;resizable=0;points=[];" vertex="1" connectable="0" parent="mdKV01XAuSbf0GLCG51V-4">
          <mxGeometry x="0.04" y="1" relative="1" as="geometry">
            <mxPoint as="offset" />
          </mxGeometry>
        </mxCell>
        <mxCell id="mdKV01XAuSbf0GLCG51V-5" value="推荐门户&lt;div&gt;&lt;div&gt;ip：门户方来测通&lt;/div&gt;&lt;/div&gt;" style="rounded=1;whiteSpace=wrap;html=1;" vertex="1" parent="WIyWlLk6GJQsqaUBKTNV-1">
          <mxGeometry x="820" y="310" width="170" height="60" as="geometry" />
        </mxCell>
        <mxCell id="mdKV01XAuSbf0GLCG51V-8" value="" style="endArrow=classic;html=1;rounded=0;exitX=0;exitY=0.5;exitDx=0;exitDy=0;fillColor=#008a00;strokeColor=light-dark(#050505, #82cd82);entryX=1;entryY=0.5;entryDx=0;entryDy=0;dashed=1;dashPattern=8 8;" edge="1" parent="WIyWlLk6GJQsqaUBKTNV-1" source="mdKV01XAuSbf0GLCG51V-5" target="mdKV01XAuSbf0GLCG51V-3">
          <mxGeometry width="50" height="50" relative="1" as="geometry">
            <mxPoint x="540" y="350" as="sourcePoint" />
            <mxPoint x="440" y="350" as="targetPoint" />
          </mxGeometry>
        </mxCell>
        <mxCell id="mdKV01XAuSbf0GLCG51V-9" value="读取" style="edgeLabel;html=1;align=center;verticalAlign=middle;resizable=0;points=[];" vertex="1" connectable="0" parent="mdKV01XAuSbf0GLCG51V-8">
          <mxGeometry x="0.04" y="1" relative="1" as="geometry">
            <mxPoint as="offset" />
          </mxGeometry>
        </mxCell>
        <mxCell id="mdKV01XAuSbf0GLCG51V-10" value="业务侧MQ" style="rounded=1;whiteSpace=wrap;html=1;" vertex="1" parent="WIyWlLk6GJQsqaUBKTNV-1">
          <mxGeometry x="-130" y="310" width="120" height="60" as="geometry" />
        </mxCell>
        <mxCell id="mdKV01XAuSbf0GLCG51V-11" value="" style="endArrow=classic;html=1;rounded=0;fillColor=#008a00;strokeColor=light-dark(#050505, #82cd82);entryX=1;entryY=0.5;entryDx=0;entryDy=0;" edge="1" parent="WIyWlLk6GJQsqaUBKTNV-1" target="mdKV01XAuSbf0GLCG51V-10">
          <mxGeometry width="50" height="50" relative="1" as="geometry">
            <mxPoint x="90" y="340" as="sourcePoint" />
            <mxPoint x="440" y="350" as="targetPoint" />
          </mxGeometry>
        </mxCell>
        <mxCell id="mdKV01XAuSbf0GLCG51V-12" value="读取" style="edgeLabel;html=1;align=center;verticalAlign=middle;resizable=0;points=[];" vertex="1" connectable="0" parent="mdKV01XAuSbf0GLCG51V-11">
          <mxGeometry x="0.04" y="1" relative="1" as="geometry">
            <mxPoint as="offset" />
          </mxGeometry>
        </mxCell>
        <mxCell id="mdKV01XAuSbf0GLCG51V-14" value="大数据平台" style="text;html=1;align=center;verticalAlign=middle;whiteSpace=wrap;rounded=0;" vertex="1" parent="WIyWlLk6GJQsqaUBKTNV-1">
          <mxGeometry x="220" y="180" width="100" height="30" as="geometry" />
        </mxCell>
        <mxCell id="mdKV01XAuSbf0GLCG51V-16" value="火山推荐平台" style="text;html=1;align=center;verticalAlign=middle;whiteSpace=wrap;rounded=0;" vertex="1" parent="WIyWlLk6GJQsqaUBKTNV-1">
          <mxGeometry x="575" y="180" width="100" height="30" as="geometry" />
        </mxCell>
        <mxCell id="mdKV01XAuSbf0GLCG51V-18" value="云盘推荐门户" style="text;html=1;align=center;verticalAlign=middle;whiteSpace=wrap;rounded=0;" vertex="1" parent="WIyWlLk6GJQsqaUBKTNV-1">
          <mxGeometry x="855" y="180" width="100" height="30" as="geometry" />
        </mxCell>
        <mxCell id="mdKV01XAuSbf0GLCG51V-20" value="业务系统" style="text;html=1;align=center;verticalAlign=middle;whiteSpace=wrap;rounded=0;" vertex="1" parent="WIyWlLk6GJQsqaUBKTNV-1">
          <mxGeometry x="-135" y="180" width="100" height="30" as="geometry" />
        </mxCell>
        <mxCell id="mdKV01XAuSbf0GLCG51V-21" value="330推荐平台&lt;div&gt;&lt;div&gt;测试环境：&lt;/div&gt;&lt;div&gt;生产环境：&lt;/div&gt;&lt;/div&gt;" style="rounded=1;whiteSpace=wrap;html=1;" vertex="1" parent="WIyWlLk6GJQsqaUBKTNV-1">
          <mxGeometry x="530" y="410" width="170" height="60" as="geometry" />
        </mxCell>
        <mxCell id="mdKV01XAuSbf0GLCG51V-22" value="" style="endArrow=classic;html=1;rounded=0;fillColor=#008a00;strokeColor=light-dark(#050505, #82cd82);entryX=1;entryY=0.5;entryDx=0;entryDy=0;" edge="1" parent="WIyWlLk6GJQsqaUBKTNV-1" target="mdKV01XAuSbf0GLCG51V-21">
          <mxGeometry width="50" height="50" relative="1" as="geometry">
            <mxPoint x="820" y="340" as="sourcePoint" />
            <mxPoint x="710" y="350" as="targetPoint" />
          </mxGeometry>
        </mxCell>
        <mxCell id="mdKV01XAuSbf0GLCG51V-23" value="读取" style="edgeLabel;html=1;align=center;verticalAlign=middle;resizable=0;points=[];" vertex="1" connectable="0" parent="mdKV01XAuSbf0GLCG51V-22">
          <mxGeometry x="0.04" y="1" relative="1" as="geometry">
            <mxPoint as="offset" />
          </mxGeometry>
        </mxCell>
        <mxCell id="mdKV01XAuSbf0GLCG51V-24" value="" style="endArrow=classic;html=1;rounded=0;fillColor=#008a00;strokeColor=light-dark(#050505, #82cd82);exitX=0;exitY=0.5;exitDx=0;exitDy=0;entryX=1;entryY=0.5;entryDx=0;entryDy=0;" edge="1" parent="WIyWlLk6GJQsqaUBKTNV-1" source="mdKV01XAuSbf0GLCG51V-21" target="mdKV01XAuSbf0GLCG51V-26">
          <mxGeometry width="50" height="50" relative="1" as="geometry">
            <mxPoint x="832" y="358" as="sourcePoint" />
            <mxPoint x="530" y="530" as="targetPoint" />
          </mxGeometry>
        </mxCell>
        <mxCell id="mdKV01XAuSbf0GLCG51V-25" value="读取" style="edgeLabel;html=1;align=center;verticalAlign=middle;resizable=0;points=[];" vertex="1" connectable="0" parent="mdKV01XAuSbf0GLCG51V-24">
          <mxGeometry x="0.04" y="1" relative="1" as="geometry">
            <mxPoint as="offset" />
          </mxGeometry>
        </mxCell>
        <mxCell id="mdKV01XAuSbf0GLCG51V-26" value="大数据离线集群" style="rounded=1;whiteSpace=wrap;html=1;" vertex="1" parent="WIyWlLk6GJQsqaUBKTNV-1">
          <mxGeometry x="210" y="410" width="120" height="60" as="geometry" />
        </mxCell>
        <mxCell id="mdKV01XAuSbf0GLCG51V-27" value="云盘BI集群" style="rounded=1;whiteSpace=wrap;html=1;" vertex="1" parent="WIyWlLk6GJQsqaUBKTNV-1">
          <mxGeometry x="-130" y="410" width="120" height="60" as="geometry" />
        </mxCell>
        <mxCell id="mdKV01XAuSbf0GLCG51V-28" value="" style="endArrow=classic;html=1;rounded=0;fillColor=#008a00;strokeColor=light-dark(#050505, #82cd82);entryX=1;entryY=0.5;entryDx=0;entryDy=0;exitX=0;exitY=0.5;exitDx=0;exitDy=0;" edge="1" parent="WIyWlLk6GJQsqaUBKTNV-1" source="mdKV01XAuSbf0GLCG51V-26" target="mdKV01XAuSbf0GLCG51V-27">
          <mxGeometry width="50" height="50" relative="1" as="geometry">
            <mxPoint x="100" y="350" as="sourcePoint" />
            <mxPoint y="350" as="targetPoint" />
          </mxGeometry>
        </mxCell>
        <mxCell id="mdKV01XAuSbf0GLCG51V-29" value="读取" style="edgeLabel;html=1;align=center;verticalAlign=middle;resizable=0;points=[];" vertex="1" connectable="0" parent="mdKV01XAuSbf0GLCG51V-28">
          <mxGeometry x="0.04" y="1" relative="1" as="geometry">
            <mxPoint as="offset" />
          </mxGeometry>
        </mxCell>
        <mxCell id="mdKV01XAuSbf0GLCG51V-30" value="" style="endArrow=classic;html=1;rounded=0;exitX=0.5;exitY=1;exitDx=0;exitDy=0;fillColor=#008a00;strokeColor=light-dark(#050505, #82cd82);" edge="1" parent="WIyWlLk6GJQsqaUBKTNV-1" source="mdKV01XAuSbf0GLCG51V-3" target="mdKV01XAuSbf0GLCG51V-21">
          <mxGeometry width="50" height="50" relative="1" as="geometry">
            <mxPoint x="550.0000000000001" y="600" as="sourcePoint" />
            <mxPoint x="790" y="660" as="targetPoint" />
          </mxGeometry>
        </mxCell>
        <mxCell id="mdKV01XAuSbf0GLCG51V-36" value="离线数据同步" style="edgeLabel;html=1;align=center;verticalAlign=middle;resizable=0;points=[];" vertex="1" connectable="0" parent="mdKV01XAuSbf0GLCG51V-30">
          <mxGeometry x="-0.015" y="-1" relative="1" as="geometry">
            <mxPoint as="offset" />
          </mxGeometry>
        </mxCell>
        <mxCell id="mdKV01XAuSbf0GLCG51V-37" value="&lt;div&gt;&lt;b&gt;517推荐平台部署-20250410&lt;/b&gt;&lt;/div&gt;&lt;div&gt;CIE环境部署&lt;/div&gt;&lt;div&gt;1、主机资源申请（已完成）--1days&lt;/div&gt;&lt;div&gt;2、minibase程序账号申请（已完成）--1days&lt;/div&gt;&lt;div&gt;3、安装包下载/上传（进行中）---3days&lt;/div&gt;&lt;div&gt;单套环境&lt;/div&gt;&lt;div&gt;4、部署环境检测及调整（待启动）---2days&lt;/div&gt;&lt;div&gt;5、CIE环境部署（待启动）---2days&lt;/div&gt;&lt;div&gt;6、QA验证（待启动）---1days&lt;/div&gt;" style="text;html=1;align=left;verticalAlign=middle;resizable=0;points=[];autosize=1;strokeColor=none;fillColor=none;" vertex="1" parent="WIyWlLk6GJQsqaUBKTNV-1">
          <mxGeometry x="380" y="555" width="260" height="140" as="geometry" />
        </mxCell>
        <mxCell id="mdKV01XAuSbf0GLCG51V-38" value="&lt;div&gt;&lt;b&gt;517生产模型部署与测通&lt;/b&gt;&lt;/div&gt;&lt;div&gt;&lt;br&gt;&lt;/div&gt;" style="text;html=1;align=left;verticalAlign=middle;resizable=0;points=[];autosize=1;strokeColor=none;fillColor=none;" vertex="1" parent="WIyWlLk6GJQsqaUBKTNV-1">
          <mxGeometry x="680" y="605" width="150" height="40" as="geometry" />
        </mxCell>
        <mxCell id="mdKV01XAuSbf0GLCG51V-39" value="&lt;div&gt;&lt;b&gt;实时采集接口开发进展：&lt;/b&gt;&lt;/div&gt;&lt;div&gt;&lt;span style=&quot;background-color: transparent; color: light-dark(rgb(0, 0, 0), rgb(255, 255, 255));&quot;&gt;已上线的Kafka Topic如下：&lt;/span&gt;&lt;br&gt;&lt;/div&gt;&lt;div&gt;1、dwd_ydyp_yhzc_paas_file_exclude_rti【用户资产（用于排除异常文件）】&lt;/div&gt;&lt;div&gt;2、dwd_ydyp_yhzc_saas_album_rti【智能相册、回忆故事物料表】&lt;/div&gt;&lt;div&gt;3、dwd_ydyp_yhzc_saas_album_ai_authorize_rti【智能相册配置表】&lt;/div&gt;&lt;div&gt;明天上线：&lt;/div&gt;&lt;div&gt;1、dwd_ydyp_yhzc_topic_algorithm_file_ai_meta_data【图片AI标签打标后物料表】&lt;/div&gt;" style="text;html=1;align=left;verticalAlign=middle;resizable=0;points=[];autosize=1;strokeColor=none;fillColor=none;" vertex="1" parent="WIyWlLk6GJQsqaUBKTNV-1">
          <mxGeometry x="-110" y="535" width="460" height="110" as="geometry" />
        </mxCell>
      </root>
    </mxGraphModel>
  </diagram>
</mxfile>
